<?xml version="1.0" encoding="UTF-8"?> <svg xmlns="http://www.w3.org/2000/svg" xmlns:xlink="http://www.w3.org/1999/xlink" version="1.1" style="" xml:space="preserve" width="99.125" height="33.625"><rect id="backgroundrect" width="100%" height="100%" x="0" y="0" fill="none" stroke="none" style="" class=""></rect> <style type="text/css"> .st0{fill:#000;} .st1{fill:none;} </style> <g class="currentLayer" style=""><title>Layer 1</title><g id="svg_2" class="selected" fill="#000000" fill-opacity="1" opacity="1"> <g id="svg_3" fill="#000000" fill-opacity="1" opacity="1"> <g id="svg_4" fill="#000000" fill-opacity="1" opacity="1"> <path class="st0" d="M62.2025,5.104999999999997 v-0.08000000000000002 h-4.66 v0.08000000000000002 c0.08000000000000002,0.36000000000000004 0.9400000000000001,1.75 0.9400000000000001,3.1 v6.01 c0,4.49 3.01,6.24 5.86,6.24 c2.95,0 5.27,-1.79 5.27,-5.75 v-5.19 c0,-1.9 1.07,-3.88 1.2,-4.38 v-0.11000000000000001 h-3.34 v0.11000000000000001 c0.15000000000000002,0.51 1.51,2.49 1.51,4.38 v5.08 c0,3.23 -1.96,4.57 -4,4.57 c-2.26,0 -3.71,-1.6400000000000001 -3.71,-4.72 v-6.24 C61.2625,6.854999999999997 62.1425,5.465000000000003 62.2025,5.104999999999997 " id="svg_5" fill="#000000" fill-opacity="1" opacity="1"></path> <path class="st0" d="M78.6725,11.155000000000001 c-2.42,-0.8900000000000001 -4.36,-1.73 -4.36,-3.29 c0,-1.1600000000000001 1.03,-2.62 2.6100000000000003,-2.62 c1.98,0 4.03,3.6 5.42,5.08 h0.11000000000000001 V6.075000000000003 c-1.24,-0.5700000000000001 -3.16,-1.26 -5.14,-1.26 c-3.54,0 -5.48,2.11 -5.48,4.34 c0,2.17 1.81,3.54 4.57,4.47 c2.36,0.8200000000000001 4.09,1.6900000000000002 4.09,3.48 c0,1.54 -1.22,2.87 -2.74,2.87 c-2.23,0 -6.02,-5.47 -6.02,-5.47 h-0.19000000000000003 v2.06 c0,5.04 -2.55,8.71 -7.21,8.71 c-7.7,0 -7.47,-10.14 -12.22,-12.34 c2.44,-0.27 4.17,-1.56 4.17,-3.94 c0,-2.42 -1.98,-3.96 -4.93,-3.96 h-6.66 v0.08000000000000002 c0.06000000000000001,0.36000000000000004 0.6500000000000001,1.75 0.6500000000000001,3.1 v8.81 c0,1.35 -0.5900000000000001,2.74 -0.6500000000000001,3.1 v0.08000000000000002 h4.37 v-0.08000000000000002 c-0.08000000000000002,-0.36000000000000004 -0.9400000000000001,-1.75 -0.9400000000000001,-3.1 v-3.81 c4.8100000000000005,0 4.13,12.95 15.63,12.95 c5.18,0 7.3,-3.79 8.07,-5.8100000000000005 c0.24000000000000002,-0.6500000000000001 0.9600000000000001,-0.98 1.61,-0.7400000000000001 c1.44,0.53 2.8200000000000003,0.8400000000000001 4.09,0.8400000000000001 c2.89,0 5.5,-1.4300000000000002 5.5,-4.47 C83.0225,14.155000000000001 81.9425,12.445 78.6725,11.155000000000001 M48.1125,12.384999999999998 v-6.6 h2.3200000000000003 c1.83,0 2.85,1.24 2.85,3.33 c0,2.19 -1.12,3.27 -2.95,3.27 H48.1125 z" id="svg_6" fill="#000000" fill-opacity="1" opacity="1"></path> <path class="st0" d="M37.7525,5.045000000000002 H34.4625 l0.6000000000000001,1.15 l-3.6,9.96 c-0.6100000000000001,1.73 -1.45,3.27 -1.8900000000000001,4 v0.06000000000000001 h3.2800000000000002 v-0.11000000000000001 c0,0 -0.46,-0.6100000000000001 -0.46,-1.32 c0,-0.8500000000000001 0.7200000000000001,-4.2 3.79,-4.2 c2.04,0 2.71,1.44 2.71,1.44 l0.32000000000000006,0.8500000000000001 c0.53,1.3900000000000001 -0.08000000000000002,2.85 -0.2,3.25 v0.08000000000000002 h5.23 v-0.06000000000000001 c-0.5700000000000001,-0.8200000000000001 -1.49,-1.85 -1.99,-3.23 L37.7525,5.045000000000002 zM35.9525,13.735 c-1.26,0 -2.2800000000000002,0.36000000000000004 -2.98,1.01 l2.6500000000000004,-7.4 l2.68,7.13 C37.7225,14.104999999999997 36.9125,13.735 35.9525,13.735 " id="svg_7" fill="#000000" fill-opacity="1" opacity="1"></path> <g id="svg_8" fill="#000000" fill-opacity="1" opacity="1"> <path class="st0" d="M13.0625,2.9650000000000034 c-1.26,-0.51 -2.8200000000000003,-0.8900000000000001 -4.640000000000001,-0.8900000000000001 c-4.33,0 -5.52,2.74 -5.52,4.35 c0,1.49 0.8,3.99 3.12,3.99 c1.8900000000000001,0 2.66,-1.02 2.66,-1.02 v-2.56 h-0.14 c0,0 -0.98,1.92 -2.67,1.92 c-1.08,0 -2.3200000000000003,-0.9 -2.3200000000000003,-2.37 c0,-1.1600000000000001 0.6900000000000002,-3.62 4.77,-3.62 c2.21,0 5.3100000000000005,2.06 5.3100000000000005,5.47 v7.48 c0,1.9 -0.97,3.88 -1.11,4.38 v0.11000000000000001 h3.42 v-0.11000000000000001 c-0.15000000000000002,-0.51 -1.4,-2.49 -1.4,-4.38 v-7.48 c0,-0.21000000000000002 0,-0.42000000000000004 0.020000000000000004,-0.6100000000000001 l4.95,12.58 l0.19000000000000003,-0.020000000000000004 v0.020000000000000004 h0.97 l4.76,-12.65 v9.46 c0,1.35 -0.8600000000000001,2.74 -0.9400000000000001,3.1 v0.08000000000000002 h4.35 v-0.08000000000000002 c-0.06000000000000001,-0.36000000000000004 -0.6500000000000001,-1.75 -0.6500000000000001,-3.1 v-8.81 c0,-1.35 0.5900000000000001,-2.74 0.6500000000000001,-3.1 v-0.08000000000000002 h-3.41 l-4.43,11.7 l-4.62,-11.7 c-0.46,-0.43000000000000005 -1.22,-1.03 -2.26,-1.57 h0.010000000000000002 c-0.3400000000000001,-0.18000000000000002 -0.7100000000000001,-0.36000000000000004 -1.07,-0.5 C13.072500000000002,2.9549999999999983 13.0625,2.9549999999999983 13.0625,2.9650000000000034 z" id="svg_9" fill="#000000" fill-opacity="1" opacity="1"></path> <path class="st0" d="M15.3825,4.204999999999998 L15.3825,4.204999999999998 C15.392499999999998,4.215000000000003 15.392499999999998,4.215000000000003 15.3825,4.204999999999998 z" id="svg_10" fill="#000000" fill-opacity="1" opacity="1"></path> </g> </g> <path class="st1" d="M85.6325,19.615000000000002 C85.6225,19.615000000000002 85.6225,19.615000000000002 85.6325,19.615000000000002 c0.45,0.16000000000000003 0.8300000000000001,0.28 1.04,0.35000000000000003 C86.3225,19.854999999999997 85.9825,19.744999999999997 85.6325,19.615000000000002 z" id="svg_11" fill="#000000" fill-opacity="1" opacity="1"></path> <path class="st0" d="M90.8825,11.155000000000001 c-2.42,-0.8900000000000001 -4.36,-1.73 -4.36,-3.29 c0,-1.1600000000000001 1.03,-2.62 2.6100000000000003,-2.62 c1.98,0 4.03,3.6 5.42,5.08 h0.11000000000000001 V6.075000000000003 c-1.24,-0.5700000000000001 -3.16,-1.26 -5.14,-1.26 c-3.54,0 -5.48,2.11 -5.48,4.34 c0,2.17 1.81,3.54 4.57,4.47 c2.36,0.8200000000000001 4.09,1.6900000000000002 4.09,3.48 c0,1.54 -1.22,2.87 -2.74,2.87 c-2.23,0 -6.02,-5.47 -6.02,-5.47 h-0.19000000000000003 v2.06 c0,0.7400000000000001 -0.06000000000000001,1.45 -0.17,2.13 c0.6000000000000001,0.36000000000000004 1.4,0.6900000000000002 2.05,0.92 c0,0 0.010000000000000002,0 0.010000000000000002,0 c0.35000000000000003,0.13 0.6900000000000002,0.24000000000000002 1.04,0.35000000000000003 c0.020000000000000004,0.010000000000000002 0.030000000000000006,0.010000000000000002 0.05000000000000001,0.020000000000000004 c1.05,0.31000000000000005 2.06,0.48000000000000004 3.01,0.48000000000000004 c2.89,0 5.5,-1.4300000000000002 5.5,-4.47 C95.2225,14.155000000000001 94.1525,12.445 90.8825,11.155000000000001 z" id="svg_12" fill="#000000" fill-opacity="1" opacity="1"></path> <path class="st0" d="M86.7125,19.975 c-0.020000000000000004,0 -0.030000000000000006,-0.010000000000000002 -0.05000000000000001,-0.020000000000000004 C86.6825,19.965000000000003 86.7025,19.965000000000003 86.7125,19.975 z" id="svg_13" fill="#000000" fill-opacity="1" opacity="1"></path> </g> <g id="svg_14" fill="#000000" fill-opacity="1" opacity="1"> <path class="st0" d="M14.8125,23.345 l1.58,5.72 h0.020000000000000004 l1.61,-5.72 h2.2800000000000002 v0.16000000000000003 H19.4625 v7.85 h0.8400000000000001 v0.16000000000000003 h-2.99 v-0.16000000000000003 h0.8300000000000001 v-7.85 h-0.020000000000000004 l-2.25,8.01 h-0.15000000000000002 l-2.25,-8.01 h-0.020000000000000004 v7.85 h0.8400000000000001 v0.16000000000000003 h-1.83 v-0.16000000000000003 h0.8400000000000001 v-7.85 h-0.8400000000000001 v-0.16000000000000003 H14.8125 z" id="svg_15" fill="#000000" fill-opacity="1" opacity="1"></path> <path class="st0" d="M21.3125,25.685000000000002 c0.21000000000000002,-0.53 0.48000000000000004,-0.98 0.81,-1.35 c0.33000000000000007,-0.37000000000000005 0.7000000000000001,-0.6600000000000001 1.1,-0.8700000000000001 c0.41000000000000003,-0.2 0.81,-0.30000000000000004 1.2,-0.30000000000000004 c0.42000000000000004,0 0.8400000000000001,0.1 1.25,0.30000000000000004 c0.41000000000000003,0.2 0.78,0.48000000000000004 1.1,0.8500000000000001 c0.32000000000000006,0.37000000000000005 0.5800000000000001,0.81 0.78,1.34 c0.2,0.52 0.30000000000000004,1.12 0.30000000000000004,1.77 c0,0.5700000000000001 -0.09000000000000002,1.12 -0.28,1.6400000000000001 c-0.19000000000000003,0.52 -0.44000000000000006,0.97 -0.7500000000000001,1.36 c-0.31000000000000005,0.39000000000000007 -0.6800000000000002,0.7000000000000001 -1.09,0.92 c-0.41000000000000003,0.23 -0.8400000000000001,0.3400000000000001 -1.3,0.3400000000000001 c-0.45,0 -0.8800000000000001,-0.11000000000000001 -1.3,-0.33000000000000007 c-0.41000000000000003,-0.22000000000000003 -0.78,-0.52 -1.09,-0.9 c-0.31000000000000005,-0.38000000000000006 -0.56,-0.8200000000000001 -0.7500000000000001,-1.34 c-0.19000000000000003,-0.51 -0.28,-1.07 -0.28,-1.6600000000000001 C20.9925,26.795 21.1025,26.215000000000003 21.3125,25.685000000000002 zM22.5925,29.424999999999997 c0.07,0.52 0.19000000000000003,0.9400000000000001 0.3400000000000001,1.25 c0.16000000000000003,0.31000000000000005 0.36000000000000004,0.53 0.6000000000000001,0.6500000000000001 c0.25,0.12000000000000001 0.54,0.18000000000000002 0.8800000000000001,0.18000000000000002 c0.45,0 0.8,-0.1 1.06,-0.32000000000000006 c0.26,-0.21000000000000002 0.45,-0.5 0.5700000000000001,-0.8700000000000001 c0.13,-0.37000000000000005 0.21000000000000002,-0.81 0.24000000000000002,-1.32 c0.030000000000000006,-0.51 0.05000000000000001,-1.06 0.05000000000000001,-1.6600000000000001 c0,-0.54 -0.010000000000000002,-1.05 -0.04000000000000001,-1.53 c-0.030000000000000006,-0.49000000000000005 -0.1,-0.91 -0.23,-1.29 c-0.13,-0.37000000000000005 -0.32000000000000006,-0.6700000000000002 -0.5800000000000001,-0.8800000000000001 c-0.26,-0.22000000000000003 -0.6200000000000001,-0.33000000000000007 -1.07,-0.33000000000000007 c-0.43000000000000005,0 -0.77,0.1 -1.02,0.30000000000000004 c-0.26,0.2 -0.45,0.49000000000000005 -0.5800000000000001,0.8600000000000001 c-0.13,0.37000000000000005 -0.22000000000000003,0.8 -0.26,1.31 s-0.06000000000000001,1.06 -0.06000000000000001,1.6600000000000001 C22.4825,28.245000000000005 22.5225,28.905 22.5925,29.424999999999997 z" id="svg_16" fill="#000000" fill-opacity="1" opacity="1"></path> <path class="st0" d="M28.502499999999998,23.504999999999995 v-0.16000000000000003 h0.8400000000000001 c0.31000000000000005,0 0.6200000000000001,-0.010000000000000002 0.93,-0.020000000000000004 c0.31000000000000005,-0.010000000000000002 0.6200000000000001,-0.020000000000000004 0.93,-0.020000000000000004 c0.27,0 0.56,0.020000000000000004 0.8700000000000001,0.07 c0.30000000000000004,0.05000000000000001 0.6100000000000001,0.13 0.9,0.25 c0.30000000000000004,0.12000000000000001 0.5800000000000001,0.28 0.8500000000000001,0.48000000000000004 c0.27,0.2 0.5,0.45 0.7100000000000001,0.7600000000000001 c0.21000000000000002,0.31000000000000005 0.37000000000000005,0.6700000000000002 0.49000000000000005,1.09 c0.12000000000000001,0.42000000000000004 0.18000000000000002,0.91 0.18000000000000002,1.48 c0,0.56 -0.06000000000000001,1.05 -0.18000000000000002,1.47 c-0.12000000000000001,0.42000000000000004 -0.28,0.78 -0.49000000000000005,1.09 c-0.2,0.31000000000000005 -0.44000000000000006,0.56 -0.7000000000000001,0.7600000000000001 c-0.26,0.2 -0.53,0.36000000000000004 -0.8200000000000001,0.48000000000000004 c-0.28,0.12000000000000001 -0.56,0.2 -0.8400000000000001,0.25 c-0.28,0.05000000000000001 -0.53,0.07 -0.77,0.07 c-0.35000000000000003,0 -0.6900000000000002,0 -1.04,-0.010000000000000002 c-0.3400000000000001,-0.010000000000000002 -0.6900000000000002,-0.010000000000000002 -1.04,-0.010000000000000002 h-0.8400000000000001 v-0.16000000000000003 h0.8400000000000001 v-7.85 H28.502499999999998 zM31.152500000000003,31.385000000000005 c0.4,0 0.7300000000000001,-0.06000000000000001 1.01,-0.18000000000000002 c0.28,-0.12000000000000001 0.52,-0.28 0.7100000000000001,-0.48000000000000004 c0.19000000000000003,-0.2 0.3400000000000001,-0.43000000000000005 0.46,-0.6900000000000002 c0.11000000000000001,-0.26 0.2,-0.53 0.26,-0.8200000000000001 c0.06000000000000001,-0.29000000000000004 0.1,-0.5700000000000001 0.11000000000000001,-0.8600000000000001 c0.020000000000000004,-0.29000000000000004 0.030000000000000006,-0.56 0.030000000000000006,-0.81 c0,-0.6200000000000001 -0.030000000000000006,-1.18 -0.09000000000000002,-1.6800000000000002 c-0.06000000000000001,-0.5 -0.18000000000000002,-0.93 -0.36000000000000004,-1.29 c-0.18000000000000002,-0.36000000000000004 -0.43000000000000005,-0.6300000000000001 -0.7600000000000001,-0.8200000000000001 c-0.33000000000000007,-0.19000000000000003 -0.7500000000000001,-0.29000000000000004 -1.28,-0.29000000000000004 c-0.12000000000000001,0 -0.23,0 -0.33000000000000007,0.010000000000000002 c-0.1,0 -0.18000000000000002,0.010000000000000002 -0.24000000000000002,0.030000000000000006 v7.85 C30.8425,31.375 31.002499999999998,31.385000000000005 31.152500000000003,31.385000000000005 z" id="svg_17" fill="#000000" fill-opacity="1" opacity="1"></path> <path class="st0" d="M41.4425,23.345 v1.96 h-0.12000000000000001 c-0.030000000000000006,-0.13 -0.08000000000000002,-0.30000000000000004 -0.16000000000000003,-0.5 c-0.07,-0.2 -0.17,-0.4 -0.31000000000000005,-0.5900000000000001 c-0.13,-0.19000000000000003 -0.30000000000000004,-0.36000000000000004 -0.51,-0.5 c-0.21000000000000002,-0.14 -0.46,-0.21000000000000002 -0.7600000000000001,-0.21000000000000002 h-1.45 v3.55 h0.51 c0.22000000000000003,0 0.42000000000000004,-0.04000000000000001 0.5700000000000001,-0.12000000000000001 c0.16000000000000003,-0.08000000000000002 0.28,-0.2 0.39000000000000007,-0.3400000000000001 c0.1,-0.15000000000000002 0.19000000000000003,-0.33000000000000007 0.26,-0.54 c0.07,-0.21000000000000002 0.12000000000000001,-0.45 0.16000000000000003,-0.7100000000000001 h0.12000000000000001 v3.5700000000000003 h-0.12000000000000001 c-0.04000000000000001,-0.22000000000000003 -0.09000000000000002,-0.44000000000000006 -0.15000000000000002,-0.6400000000000001 c-0.06000000000000001,-0.21000000000000002 -0.14,-0.39000000000000007 -0.23,-0.55 c-0.1,-0.16000000000000003 -0.22000000000000003,-0.28 -0.36000000000000004,-0.37000000000000005 c-0.14,-0.09000000000000002 -0.32000000000000006,-0.14 -0.53,-0.14 h-0.6100000000000001 v4.14 h1.5 c0.28,0 0.53,-0.06000000000000001 0.7600000000000001,-0.18000000000000002 c0.22000000000000003,-0.12000000000000001 0.42000000000000004,-0.28 0.6000000000000001,-0.5 c0.17,-0.21000000000000002 0.32000000000000006,-0.46 0.43000000000000005,-0.7500000000000001 c0.12000000000000001,-0.29000000000000004 0.2,-0.6000000000000001 0.26,-0.92 h0.12000000000000001 v2.51 h-5.83 v-0.16000000000000003 h0.8400000000000001 v-7.85 h-0.8400000000000001 v-0.16000000000000003 H41.4425 z" id="svg_18" fill="#000000" fill-opacity="1" opacity="1"></path> <path class="st0" d="M45.6625,23.345 v0.16000000000000003 h-0.8400000000000001 v7.85 h1.51 c0.2,0 0.4,-0.04000000000000001 0.6100000000000001,-0.13 c0.2,-0.08000000000000002 0.4,-0.22000000000000003 0.5800000000000001,-0.42000000000000004 c0.18000000000000002,-0.2 0.3400000000000001,-0.45 0.48000000000000004,-0.7600000000000001 c0.14,-0.31000000000000005 0.25,-0.6900000000000002 0.33000000000000007,-1.13 h0.12000000000000001 v2.59 H42.6625 v-0.16000000000000003 h0.8400000000000001 v-7.85 H42.6625 v-0.16000000000000003 H45.6625 z" id="svg_19" fill="#000000" fill-opacity="1" opacity="1"></path> <path class="st0" d="M49.5425,28.965000000000003 c0.010000000000000002,0.09000000000000002 0.030000000000000006,0.21000000000000002 0.06000000000000001,0.36000000000000004 c0.030000000000000006,0.15000000000000002 0.07,0.31000000000000005 0.13,0.48000000000000004 c0.06000000000000001,0.17 0.13,0.35000000000000003 0.22000000000000003,0.53 c0.09000000000000002,0.18000000000000002 0.2,0.35000000000000003 0.32000000000000006,0.5 c0.14,0.18000000000000002 0.28,0.31000000000000005 0.41000000000000003,0.4 c0.13,0.09000000000000002 0.26,0.16000000000000003 0.37000000000000005,0.2 c0.12000000000000001,0.04000000000000001 0.23,0.07 0.3400000000000001,0.07 c0.11000000000000001,0 0.21000000000000002,0.010000000000000002 0.30000000000000004,0.010000000000000002 c0.32000000000000006,0 0.5900000000000001,-0.06000000000000001 0.79,-0.19000000000000003 c0.21000000000000002,-0.13 0.37000000000000005,-0.28 0.49000000000000005,-0.46 c0.12000000000000001,-0.18000000000000002 0.2,-0.38000000000000006 0.25,-0.5800000000000001 c0.05000000000000001,-0.2 0.07,-0.38000000000000006 0.07,-0.53 c0,-0.28 -0.05000000000000001,-0.52 -0.16000000000000003,-0.7000000000000001 c-0.11000000000000001,-0.18000000000000002 -0.25,-0.3400000000000001 -0.42000000000000004,-0.46 c-0.18000000000000002,-0.12000000000000001 -0.38000000000000006,-0.23 -0.6000000000000001,-0.31000000000000005 c-0.22000000000000003,-0.08000000000000002 -0.46,-0.17 -0.6900000000000002,-0.26 c-0.24000000000000002,-0.09000000000000002 -0.47000000000000003,-0.19000000000000003 -0.6900000000000002,-0.31000000000000005 c-0.23,-0.12000000000000001 -0.43000000000000005,-0.27 -0.6000000000000001,-0.46 c-0.18000000000000002,-0.19000000000000003 -0.32000000000000006,-0.42000000000000004 -0.42000000000000004,-0.6900000000000002 c-0.11000000000000001,-0.28 -0.16000000000000003,-0.6200000000000001 -0.16000000000000003,-1.03 c0,-0.31000000000000005 0.05000000000000001,-0.6000000000000001 0.16000000000000003,-0.8800000000000001 c0.11000000000000001,-0.28 0.26,-0.53 0.46,-0.7500000000000001 c0.19000000000000003,-0.22000000000000003 0.43000000000000005,-0.39000000000000007 0.7000000000000001,-0.53 c0.27,-0.13 0.56,-0.2 0.8800000000000001,-0.2 c0.2,0 0.38000000000000006,0.020000000000000004 0.53,0.07 c0.15000000000000002,0.05000000000000001 0.29000000000000004,0.09000000000000002 0.4,0.14 c0.12000000000000001,0.05000000000000001 0.22000000000000003,0.1 0.31000000000000005,0.14 c0.09000000000000002,0.05000000000000001 0.17,0.07 0.24000000000000002,0.07 c0.09000000000000002,0 0.14,-0.020000000000000004 0.17,-0.05000000000000001 c0.030000000000000006,-0.030000000000000006 0.06000000000000001,-0.1 0.09000000000000002,-0.19000000000000003 h0.15000000000000002 v2.18 h-0.12000000000000001 c-0.07,-0.27 -0.15000000000000002,-0.53 -0.23,-0.79 c-0.08000000000000002,-0.26 -0.19000000000000003,-0.5 -0.31000000000000005,-0.7100000000000001 c-0.13,-0.21000000000000002 -0.29000000000000004,-0.38000000000000006 -0.48000000000000004,-0.51 c-0.19000000000000003,-0.13 -0.44000000000000006,-0.19000000000000003 -0.7400000000000001,-0.19000000000000003 c-0.24000000000000002,0 -0.46,0.04000000000000001 -0.6400000000000001,0.13 c-0.19000000000000003,0.08000000000000002 -0.3400000000000001,0.2 -0.47000000000000003,0.33000000000000007 c-0.13,0.14 -0.23,0.29000000000000004 -0.29000000000000004,0.46 s-0.1,0.3400000000000001 -0.1,0.52 c0,0.27 0.06000000000000001,0.49000000000000005 0.17,0.6700000000000002 c0.11000000000000001,0.18000000000000002 0.26,0.33000000000000007 0.44000000000000006,0.45 c0.18000000000000002,0.13 0.39000000000000007,0.24000000000000002 0.6300000000000001,0.33000000000000007 c0.23,0.09000000000000002 0.47000000000000003,0.19000000000000003 0.7200000000000001,0.29000000000000004 c0.25,0.1 0.49000000000000005,0.21000000000000002 0.7200000000000001,0.33000000000000007 c0.23,0.12000000000000001 0.44000000000000006,0.27 0.6300000000000001,0.45 c0.18000000000000002,0.18000000000000002 0.33000000000000007,0.41000000000000003 0.44000000000000006,0.6700000000000002 c0.11000000000000001,0.26 0.17,0.5800000000000001 0.17,0.9600000000000001 c0,0.37000000000000005 -0.06000000000000001,0.7300000000000001 -0.18000000000000002,1.07 c-0.12000000000000001,0.3400000000000001 -0.29000000000000004,0.6300000000000001 -0.52,0.8800000000000001 c-0.22000000000000003,0.25 -0.49000000000000005,0.45 -0.79,0.6000000000000001 c-0.31000000000000005,0.15000000000000002 -0.6500000000000001,0.22000000000000003 -1.03,0.22000000000000003 c-0.19000000000000003,0 -0.38000000000000006,-0.020000000000000004 -0.56,-0.07 c-0.19000000000000003,-0.05000000000000001 -0.36000000000000004,-0.09000000000000002 -0.52,-0.14 c-0.16000000000000003,-0.05000000000000001 -0.30000000000000004,-0.1 -0.43000000000000005,-0.14 c-0.12000000000000001,-0.05000000000000001 -0.22000000000000003,-0.07 -0.28,-0.07 c-0.09000000000000002,0 -0.15000000000000002,0.020000000000000004 -0.18000000000000002,0.05000000000000001 c-0.04000000000000001,0.030000000000000006 -0.07,0.11000000000000001 -0.1,0.21000000000000002 h-0.15000000000000002 v-2.55 H49.5425 z" id="svg_20" fill="#000000" fill-opacity="1" opacity="1"></path> </g> </g></g></svg> 